<svg width="16" height="16" viewBox="0 0 16 16" fill="none" xmlns="http://www.w3.org/2000/svg">
<path d="M5.51987 1.66685C5.93987 1.67962 6.34654 1.75296 6.74054 1.88696H6.77987C6.80654 1.89962 6.82654 1.91362 6.83987 1.92629C6.9872 1.97362 7.12654 2.02696 7.25987 2.10029L7.5132 2.21362C7.6132 2.26696 7.7332 2.36629 7.79987 2.40696C7.86654 2.44629 7.93987 2.48696 7.99987 2.53296C8.74054 1.96696 9.63987 1.66029 10.5665 1.66685C10.9872 1.66685 11.4072 1.72629 11.8065 1.86029C14.2672 2.66029 15.1539 5.36029 14.4132 7.72029C13.9932 8.92629 13.3065 10.027 12.4072 10.9263C11.1199 12.173 9.7072 13.2796 8.18654 14.233L8.01987 14.3336L7.84654 14.2263C6.32054 13.2796 4.89987 12.173 3.60054 10.9196C2.7072 10.0203 2.01987 8.92629 1.5932 7.72029C0.839869 5.36029 1.72654 2.66029 4.21387 1.84629C4.4072 1.77962 4.60654 1.73296 4.80654 1.70696H4.88654C5.07387 1.67962 5.25987 1.66685 5.44654 1.66685H5.51987ZM11.4599 3.77362C11.1865 3.67962 10.8865 3.82696 10.7865 4.10696C10.6932 4.38696 10.8399 4.69362 11.1199 4.79296C11.5472 4.95296 11.8332 5.37362 11.8332 5.83962V5.86029C11.8205 6.01296 11.8665 6.16029 11.9599 6.27362C12.0532 6.38696 12.1932 6.45296 12.3399 6.46696C12.6132 6.45962 12.8465 6.24029 12.8665 5.95962V5.88029C12.8865 4.94629 12.3205 4.10029 11.4599 3.77362Z" fill="#E5524A"/>
</svg>
